<svg xmlns="http://www.w3.org/2000/svg" width="1024" height="1024"><path fill="#240c5a" d="M743 942.2c-11.4 1.3-399.6 2-436 .8-22.8-.8-29-1.3-49-4.4a202 202 0 0 1-124.4-71.1c-5-6-10.3-12.8-11.7-15l-5.8-9A200 200 0 0 1 91.4 778c-6.2-35.2-6.7-60.1-6.1-296 .4-198 .7-213.8 4.2-234.1l2-12.3c.4-1.6 1.6-7 3-12 7-27 21.2-54.1 38.6-74.1a256 256 0 0 1 40.6-37.4c29.8-20.3 60.5-30.7 104.8-35.7 14.8-1.7 31.3-1.9 219.5-2.2 232.3-.3 244 0 277 6.5a189 189 0 0 1 105 57c12 12.2 15 16 24 29.8l4.8 7c1 1.3 10.2 20 13 27A223 223 0 0 1 934 248l2.2 17c1 7.6 1.3 54.9 1.3 237.5L935.7 749c-1 10.2-2.8 23-3.9 28.5l-2.5 12.5a206 206 0 0 1-9.3 28.7c0 2.4-12.8 26.1-18.5 34.3a218 218 0 0 1-53.5 53.7 189 189 0 0 1-34 18.8 254 254 0 0 1-71 16.7M306.3 702.9c4 .5 75.7.8 159.3.7h31.7c112.7-.1 123.3-.1 132.3-3.7l5.7-2.5a83 83 0 0 0 46-52.6l2.3-7.3.3-127.4c.2-125.3.2-127.6-1.8-135.5a78 78 0 0 0-23.8-39.8 78 78 0 0 0-31.2-18l-7.5-2.3h-318l-8 2.7a82 82 0 0 0-54.3 58.3c-1.6 5.5-1.7 17.5-1.7 132.5v126.5l2.2 8a80 80 0 0 0 22.8 39 79 79 0 0 0 43.7 21.4m503.6-30c7.6 2.1 17.8-.6 22.9-6 1.2-1.3 3-4.4 4.2-6.9 2-4.5 2-5.7 2-150.5v-146l-3-5.2c-1.6-3-4.7-6.4-7-8-7.6-5-20-4-28 2.3L775.5 372c-53.4 40.5-66.9 51.4-69.5 56l-2.5 4.5V510c0 76.7 0 77.5 2 81.5 2.6 4.8 6.5 8.2 39.4 33.5 48.5 37.4 61.3 46.8 65 47.9"/><path fill="#9350f6" d="M306 702.8c-15.5-1.8-32-9.9-43.8-21.4a80 80 0 0 1-22.8-39l-2.2-8V508l1.7-132.5a82 82 0 0 1 54.3-58.2l8-2.8h318l7.5 2.4a78 78 0 0 1 31.2 18 78 78 0 0 1 23.8 39.7c2 8 2 10.2 1.8 135.5l-.3 127.4-2.3 7.4a83 83 0 0 1-46 52.6l-5.7 2.4c-9 3.6-19.5 3.6-132.3 3.7h-31.7c-83.6.1-155.3-.2-159.3-.7m503.5-30c-3.6-1-16.4-10.5-64.9-47.9-32.8-25.3-36.8-28.7-39.3-33.5-2-4-2-4.8-2-81.5v-77.5l2.4-4.5c2.6-4.6 16.1-15.5 69.5-56 6.2-4.6 24.4-24.1 39.5-25 6-.4 13 1.3 17.2 5.2 5 4.5 6.8 11.3 6.8 11.3v146l-2 150.5c-1.2 2.5-3 5.6-4.3 6.9a25 25 0 0 1-22.9 6m-467.8-26.4c3 1.3 18.3 1.5 117.8 1.5h12c98.8 0 105.8 0 110-3.4l1.5-1.4c8.4-7.5 7.4-27.6-2.3-48C564.8 561.8 529 540 480.4 534c-12.3-1.5-40-.8-52.2 1.5-42 7.6-73.7 28.2-88.5 57.5-5.5 11-8 20.2-8.7 31-.5 8.3-.3 10.1 1.5 13.6 2.4 4.7 4.6 6.8 9.2 8.9m106.5-134.5c2.8.5 9.3.8 14.5.6q26.7-1 46-20.6c13.8-14 20-28 20.8-47.1a65 65 0 0 0-7.5-36.2c-3.8-7.6-6.1-10.7-13.7-18.2a63 63 0 0 0-49.1-20.5c-19.3 0-34 6.4-48.5 21a61 61 0 0 0-12.8 16.7A72 72 0 0 0 448.2 512"/><path fill="#fdfbfe" d="M0 512V0h1024v1024H0zm743 430.2c29.3-3.3 44.6-6.8 71-16.7 8.1-3 21.2-10.2 34-18.8 19-12.8 39-33 53.5-53.7 5.7-8.2 18.5-32 18.5-34.3a206 206 0 0 0 9.3-28.7l2.5-12.5c1.1-5.5 2.9-18.3 3.9-28.5 1.7-17.3 1.8-33 1.8-246.5L936.2 265l-2.2-17a223 223 0 0 0-12.1-46.5c-3-7-12-25.7-13-27l-4.9-7c-9-13.9-12-17.6-24-29.8a189 189 0 0 0-105-57c-33-6.6-44.7-6.8-277-6.5l-219.5 2.2c-44.3 5-75 15.4-104.8 35.7a256 256 0 0 0-40.6 37.4 189 189 0 0 0-41.5 86.1L89.5 248c-3.5 20.3-3.8 36-4.2 234.1-.6 235.9 0 260.8 6.2 296 3.8 22 14 49.3 24.6 65.5l5.8 9c1.4 2.2 6.7 9 11.7 15A202 202 0 0 0 258 938.6c20 3 26.2 3.6 49 4.4 36.4 1.2 424.6.5 436-.8"/><path fill="#9350f6" d="M459 865.6a367 367 0 0 1-184-75.4 360.5 360.5 0 0 1-135.7-239 533 533 0 0 1-.4-81.6 365 365 0 0 1 109.2-222 355 355 0 0 1 433-47.4c28.3 17.6 68 51.5 68 58.1 0 2.6-2.8 5.8-5 5.8-.7 0-7-5.4-14-12a322 322 0 0 0-49-39.1 342 342 0 0 0-140-52c-13.6-2-19.3-2.4-45-2.3-32.5 0-43.7 1-70.5 6.5a346 346 0 0 0-154.4 75.4 352 352 0 0 0-87.7 113c-7.8 16-14.2 31.5-19.4 47.5-7.1 22-12 44.6-15.2 70a556 556 0 0 0 0 76 348 348 0 0 0 49.6 142.5 356 356 0 0 0 258.7 165.2c16.3 2 59.3 2.3 74.3.4a344 344 0 0 0 167.5-66c18.6-13.7 43-37.3 58.8-56.9 4.6-5.6 9-10.2 9.8-10.2 3 0 5.4 2 5.4 4.7 0 6.4-28.2 38-52.2 58.3a350 350 0 0 1-193.2 81 520 520 0 0 1-68.6-.5"/></svg>